Patient4_TMGait_0pt8_01_left_50_GRF.mot
version=1
nRows=65
nColumns=19
inDegrees=no
endheader
time	F1x	F1y	F1z	M1x	M1y	M1z	F2x	F2y	F2z	M2x	M2y	M2z	EC1x	EC1y	EC1z	EC2x	EC2y	EC2z
55.72	-11.973	-6.4675	5.2753	-0.514	-9.4239	-13.3754	-46.4643	704.1486	-61.9955	241.0892	92.1509	827.085	-0.0592	0.0182	-0.0073	-0.0462	0.0165	0.9585
55.7314	-8.3406	-3.5013	3.6099	-0.64218	-6.534	-7.9912	-41.8269	705.2206	-61.1841	241.6871	89.3697	826.3758	-0.0592	0.0182	-0.0073	-0.0462	0.0165	0.9585
55.7429	-5.2712	-1.0742	2.2332	-0.74178	-4.1137	-3.5476	-37.1955	708.1297	-60.5117	242.8758	86.581	826.63	-0.0592	0.0182	-0.0073	-0.0462	0.0165	0.9585
55.7543	-2.9422	0.71547	1.2085	-0.81719	-2.293	-0.24433	-32.7537	713.1183	-59.9878	244.7207	83.8963	828.1471	-0.0592	0.0182	-0.0073	-0.0462	0.0165	0.9585
55.7657	-1.3462	1.9196	0.52097	-0.87636	-1.0604	2.0015	-28.5538	720.1071	-59.6301	247.1933	81.3896	830.9754	-0.0592	0.0182	-0.0073	-0.0462	0.0165	0.9585
55.7771	-0.38111	2.6432	0.11204	-0.92094	-0.32638	3.3762	-24.5706	728.7834	-59.426	250.1923	79.0746	834.9412	-0.0592	0.0182	-0.0073	-0.0462	0.0165	0.9585
55.7886	0.095958	3.0207	-0.083783	-0.95114	0.024215	4.1102	-20.7575	738.6545	-59.3845	253.5513	76.9662	839.6972	-0.0592	0.0182	-0.0073	-0.0462	0.0165	0.9585
55.8	0.22968	3.1475	-0.13533	-0.9593	0.10536	4.3871	-17.0681	749.1023	-59.4922	257.0554	75.0479	844.7553	-0.0592	0.0182	-0.0073	-0.0462	0.0165	0.9585
55.8114	0.12798	3.0808	-0.089026	-0.93194	-0.00016379	4.3287	-13.4496	759.4354	-59.745	260.4581	73.3032	849.5097	-0.0592	0.0182	-0.0073	-0.0462	0.0165	0.9585
55.8229	-0.10606	2.83	0.0158	-0.84816	-0.22386	3.9894	-9.8571	768.9433	-60.1323	263.5059	71.7061	853.3126	-0.0592	0.0182	-0.0073	-0.0462	0.0165	0.9585
55.8343	-0.41159	2.3468	0.16001	-0.67465	-0.52097	3.3337	-6.1977	776.9989	-60.6366	265.9783	70.2132	855.5742	-0.0592	0.0182	-0.0073	-0.0462	0.0165	0.9585
55.8457	-0.73345	1.5678	0.33143	-0.3772	-0.85848	2.2897	-2.4107	783.133	-61.2407	267.7152	68.7863	855.8404	-0.0592	0.0182	-0.0073	-0.0462	0.0165	0.9585
55.8571	-1.0177	0.39593	0.51936	0.083005	-1.2	0.74435	1.5628	787.0464	-61.9144	268.6219	67.3754	853.8136	-0.0592	0.0182	-0.0073	-0.0462	0.0165	0.9585
55.8686	-1.2074	-1.2124	0.69885	0.72629	-1.4934	-1.367	5.7017	788.6006	-62.6556	268.6616	65.976	849.3867	-0.0592	0.0182	-0.0073	-0.0462	0.0165	0.9585
55.88	-1.2171	-3.2559	0.83341	1.549	-1.6537	-4.0343	9.941	787.7662	-63.4706	267.8379	64.6126	842.5639	-0.0592	0.0182	-0.0073	-0.0462	0.0165	0.9585
55.8914	-0.9236	-5.5716	0.86744	2.4817	-1.5576	-7.0461	14.1639	784.6147	-64.3715	266.1896	63.3339	833.4665	-0.0592	0.0182	-0.0073	-0.0462	0.0165	0.9585
55.9029	-0.18342	-7.7914	0.73471	3.3669	-1.0531	-9.9368	18.2645	779.2973	-65.3743	263.7873	62.1917	822.2733	-0.0592	0.0182	-0.0073	-0.0462	0.0165	0.9585
55.9143	1.1751	-9.2393	0.33332	3.924	0.064005	-11.8403	22.1267	772.1278	-66.4501	260.7577	61.2006	809.3303	-0.0592	0.0182	-0.0073	-0.0462	0.0165	0.9585
55.9257	3.314	-8.8751	-0.45434	3.7232	2.0115	-11.4285	25.7033	763.5717	-67.565	257.2808	60.3541	795.1236	-0.0592	0.0182	-0.0073	-0.0462	0.0165	0.9585
55.9371	6.3156	-5.234	-1.7585	2.1634	4.9889	-6.8211	28.9561	754.2476	-68.644	253.5859	59.6004	780.2962	-0.0592	0.0182	-0.0073	-0.0462	0.0165	0.9585
55.9486	10.1538	3.5233	-3.6764	-1.5126	9.1008	4.3484	31.9214	744.779	-69.6012	249.9037	58.8571	765.4666	-0.0592	0.0182	-0.0073	-0.0462	0.0165	0.9585
55.96	14.5231	19.469	-6.2319	-8.155	14.2374	24.7767	34.6451	735.6491	-70.3123	246.4137	57.9969	751.1408	-0.0592	0.0182	-0.0073	-0.0462	0.0165	0.9585
55.9714	18.7541	44.582	-9.2881	-18.5698	19.9181	57.0454	37.1965	726.9661	-70.629	243.1648	56.8606	737.4417	-0.0592	0.0182	-0.0073	-0.0462	0.0165	0.9585
55.9829	21.6176	80.168	-12.4701	-33.2776	25.139	102.8944	39.6151	718.3006	-70.3885	240.017	55.2827	723.9924	-0.0592	0.0182	-0.0073	-0.0462	0.0165	0.9585
55.9943	21.3642	126.1719	-15.1654	-52.2285	28.4013	162.2982	41.9692	708.5106	-69.4206	236.5895	53.0854	709.6963	-0.0592	0.0182	-0.0073	-0.0462	0.0165	0.9585
56.0057	16.4457	180.7505	-16.5895	-74.6213	28.057	232.9437	44.2547	695.9213	-67.5836	232.3138	50.1398	692.9559	-0.0592	0.0182	-0.0073	-0.0462	0.0165	0.9585
56.0171	6.8323	240.1754	-15.7178	-98.8483	22.7622	309.9945	46.4201	678.5612	-64.7487	226.5224	46.3443	671.873	-0.0592	0.0182	-0.0073	-0.0462	0.0165	0.9585
56.0286	-5.4552	298.7118	-11.5352	-122.5122	12.1038	385.8689	48.3192	654.5267	-60.8767	218.5645	41.712	644.6436	-0.0592	0.0182	-0.0073	-0.0462	0.0165	0.9585
56.04	-17.8015	350.2799	-4.0929	-143.1763	-2.6647	452.3623	49.7418	622.3544	-56.0145	207.936	36.366	609.8851	-0.0592	0.0182	-0.0073	-0.0462	0.0165	0.9585
56.0514	-28.3776	391.901	5.3291	-159.6856	-19.1057	505.3214	50.3803	581.4575	-50.3342	194.4184	30.5765	567.1201	-0.0592	0.0182	-0.0073	-0.0462	0.0165	0.9585
56.0629	-36.4112	424.0151	15.2359	-172.3176	-34.9984	545.1912	49.9647	532.2912	-44.0926	178.1427	24.6794	516.8719	-0.0592	0.0182	-0.0073	-0.0462	0.0165	0.9585
56.0743	-41.905	449.3596	24.3703	-182.2556	-48.7364	575.5229	48.2713	476.2997	-37.6204	159.567	19.0573	460.6004	-0.0592	0.0182	-0.0073	-0.0462	0.0165	0.9585
56.0857	-45.1328	470.9873	31.6095	-190.8194	-59.0705	600.3226	45.1925	415.63	-31.2032	139.3947	14.0111	400.4008	-0.0592	0.0182	-0.0073	-0.0462	0.0165	0.9585
56.0971	-46.5522	491.4111	36.4952	-199.0566	-65.6081	622.8882	40.7341	352.9149	-25.0727	118.4962	9.7464	338.8107	-0.0592	0.0182	-0.0073	-0.0462	0.0165	0.9585
56.1086	-46.5085	512.3187	39.0285	-207.6347	-68.5429	645.3946	35.0931	290.9375	-19.4225	97.8033	6.3703	278.4463	-0.0592	0.0182	-0.0073	-0.0462	0.0165	0.9585
56.12	-45.4027	534.7271	39.7806	-216.8988	-68.7673	669.2429	28.6598	232.4073	-14.4167	78.2258	3.8969	221.8273	-0.0592	0.0182	-0.0073	-0.0462	0.0165	0.9585
56.1314	-43.5742	559.2345	39.5699	-226.9867	-67.4478	695.2185	22.0024	179.6019	-10.2162	60.5308	2.2734	171.0247	-0.0592	0.0182	-0.0073	-0.0462	0.0165	0.9585
56.1429	-41.3435	585.8302	39.2781	-237.7915	-65.8089	723.4393	15.705	134.0134	-6.8948	45.2275	1.3525	127.3644	-0.0592	0.0182	-0.0073	-0.0462	0.0165	0.9585
56.1543	-39.0629	614.0455	39.7144	-249.0274	-64.9627	753.3754	10.2597	96.2361	-4.4491	32.5227	0.95149	91.3226	-0.0592	0.0182	-0.0073	-0.0462	0.0165	0.9585
56.1657	-37.031	643.0878	41.3179	-260.3197	-65.5602	784.1149	5.913	66.0376	-2.7363	22.3508	0.84552	62.6024	-0.0592	0.0182	-0.0073	-0.0462	0.0165	0.9585
56.1771	-35.3628	672.2295	44.1394	-271.3562	-67.706	814.8203	2.6966	42.7342	-1.6069	14.4874	0.8804	40.5126	-0.0592	0.0182	-0.0073	-0.0462	0.0165	0.9585
56.1886	-34.0619	700.8743	47.7405	-281.9126	-70.9035	844.7451	0.51836	25.4006	-0.89968	8.6264	0.94036	24.1434	-0.0592	0.0182	-0.0073	-0.0462	0.0165	0.9585
56.2	-33.0487	728.194	51.6377	-291.6976	-74.545	872.9075	-0.80037	13.0809	-0.46525	4.4491	0.95305	12.5661	-0.0592	0.0182	-0.0073	-0.0462	0.0165	0.9585
56.2114	-32.1813	753.1021	55.4257	-300.3134	-78.1011	897.9842	-1.4216	4.9075	-0.20723	1.6669	0.89299	4.9216	-0.0592	0.0182	-0.0073	-0.0462	0.0165	0.9585
56.2229	-31.3277	774.2133	58.9642	-307.2491	-81.3314	918.3448	-1.5637	0.036757	-0.072845	0.0017571	0.78679	0.40567	-0.0592	0.0182	-0.0073	-0.0462	0.0165	0.9585
56.2343	-30.3208	790.1884	62.2154	-312.0129	-84.116	932.4268	-1.4082	-2.3649	-0.031447	-0.82634	0.67075	-1.7869	-0.0592	0.0182	-0.0073	-0.0462	0.0165	0.9585
56.2457	-29.0814	799.9951	65.1292	-314.2575	-86.3571	939.0714	-1.1258	-3.1056	-0.050512	-1.0877	0.57104	-2.4278	-0.0592	0.0182	-0.0073	-0.0462	0.0165	0.9585
56.2571	-27.538	803.2694	67.5404	-313.9199	-87.8536	937.8958	-0.8019	-2.8591	-0.10241	-1.0074	0.49384	-2.1679	-0.0592	0.0182	-0.0073	-0.0462	0.0165	0.9585
56.2686	-25.6222	800.3584	69.2463	-311.2211	-88.371	929.3561	-0.50062	-2.1102	-0.17144	-0.75092	0.44702	-1.4587	-0.0592	0.0182	-0.0073	-0.0462	0.0165	0.9585
56.28	-23.3026	792.1182	70.1192	-306.5786	-87.7699	914.4812	-0.2444	-1.2235	-0.24058	-0.43916	0.42425	-0.64715	-0.0592	0.0182	-0.0073	-0.0462	0.0165	0.9585
56.2914	-20.5521	779.7782	70.1421	-300.5268	-86.0374	894.7142	-0.046215	-0.37732	-0.30395	-0.13723	0.4232	0.1158	-0.0592	0.0182	-0.0073	-0.0462	0.0165	0.9585
56.3029	-17.361	764.6465	69.4006	-293.6121	-83.2838	871.5874	0.099504	0.31064	-0.35367	0.11495	0.43511	0.71286	-0.0592	0.0182	-0.0073	-0.0462	0.0165	0.9585
56.3143	-13.7646	748.0863	68.0281	-286.377	-79.685	846.6779	0.17578	0.84127	-0.38673	0.31217	0.45993	1.1695	-0.0592	0.0182	-0.0073	-0.0462	0.0165	0.9585
56.3257	-9.7812	731.4286	66.1964	-279.3336	-75.4524	821.5316	0.21303	1.2159	-0.40661	0.4549	0.48687	1.4926	-0.0592	0.0182	-0.0073	-0.0462	0.0165	0.9585
56.3371	-5.4331	715.9671	64.0809	-272.9572	-70.7988	797.6112	0.19665	1.4753	-0.4142	0.55442	0.5144	1.7353	-0.0592	0.0182	-0.0073	-0.0462	0.0165	0.9585
56.3486	-0.73281	702.8462	61.8604	-267.6491	-65.9245	776.1951	0.16411	1.6587	-0.41713	0.62303	0.53869	1.9245	-0.0592	0.0182	-0.0073	-0.0462	0.0165	0.9585
56.36	4.3072	692.9696	59.6995	-263.7062	-61.0093	758.3077	0.098202	1.8063	-0.41417	0.67366	0.55953	2.1106	-0.0592	0.0182	-0.0073	-0.0462	0.0165	0.9585
56.3714	9.6315	686.9624	57.7374	-261.3096	-56.2142	744.6479	0.026928	1.9242	-0.41054	0.70973	0.578	2.2772	-0.0592	0.0182	-0.0073	-0.0462	0.0165	0.9585
56.3829	15.1544	685.126	56.0946	-260.5125	-51.6881	735.5925	-0.060144	2.0205	-0.41613	0.73181	0.60945	2.4339	-0.0592	0.0182	-0.0073	-0.0462	0.0165	0.9585
56.3943	20.7707	687.4621	54.8787	-261.2518	-47.5737	731.1896	-0.14509	2.0396	-0.44084	0.72455	0.66173	2.4967	-0.0592	0.0182	-0.0073	-0.0462	0.0165	0.9585
56.4057	26.3185	693.6887	54.187	-263.359	-44.0246	731.1716	-0.25502	1.9549	-0.49963	0.67656	0.76154	2.4292	-0.0592	0.0182	-0.0073	-0.0462	0.0165	0.9585
56.4171	31.6272	703.2618	54.1051	-266.58	-41.1886	734.9736	-0.37864	1.6804	-0.60305	0.5595	0.92337	2.1087	-0.0592	0.0182	-0.0073	-0.0462	0.0165	0.9585
56.4286	36.5095	715.4934	54.6682	-270.6251	-39.1712	741.8691	-0.53604	1.1478	-0.75987	0.34706	1.1654	1.449	-0.0592	0.0182	-0.0073	-0.0462	0.0165	0.9585
56.44	40.8188	729.5869	55.8397	-275.1932	-37.9899	751.0028	-0.7012	0.28209	-0.96261	0.01282	1.4743	0.3442	-0.0592	0.0182	-0.0073	-0.0462	0.0165	0.9585
56.4514	44.4711	744.7382	57.5203	-279.9975	-37.5796	761.4915	-0.88419	-0.96416	-1.1844	-0.46076	1.8149	-1.2473	-0.0592	0.0182	-0.0073	-0.0462	0.0165	0.9585
